<svg id="_x33_0" enable-background="new 0 0 64 64" height="512" viewBox="0 0 64 64" width="512" xmlns="http://www.w3.org/2000/svg"><g><g><g><path d="m62 18v11.47c0 2.31-.64 4.57-1.85 6.54l-4.3 6.98c-1.21 1.97-1.85 4.23-1.85 6.54 0 6.89-5.58 12.47-12.47 12.47h-18.18c-2.98 0-5.89-.62-8.57-1.79-2.67-1.17-5.1-2.89-7.12-5.08-3.64-3.94-5.66-9.11-5.66-14.47v-10.6c0-2.96 1-5.74 2.71-7.98 1.71-2.22 4.15-3.9 7.01-4.67 3.38-.9 6.26-3.12 7.99-6.16l1.52-2.65c2.33-4.08 6.67-6.6 11.37-6.6h13.4c8.84 0 16 7.16 16 16z" fill="#dfb28b"/></g><g><ellipse cx="13" cy="22" fill="#b27946" rx="3" ry="2"/></g><g><ellipse cx="50" cy="41" fill="#b27946" rx="3" ry="2"/></g><g><path d="m33.51 32.89c-2.44-.32-4.63-1.45-6.29-3.11-1.99-1.99-3.22-4.74-3.22-7.78 0-3.86 1.57-7.36 4.1-9.9 2.54-2.53 6.04-4.1 9.9-4.1 4.14 0 7.89 1.68 10.6 4.4 2.72 2.71 4.4 6.46 4.4 10.6 0 3.9-1.4 7.48-3.72 10.26s-5.57 4.76-9.27 5.46c-.27.05-.54.07-.81.07-1.42-.01-2.75-.75-3.47-2.01l-2.22-3.88z" fill="#e6e9ed"/></g><g><ellipse cx="24" cy="56" fill="#b27946" rx="3" ry="2"/></g></g><g><path d="m38 7c-8.271 0-15 6.729-15 15 0 5.895 4.273 10.811 9.885 11.813l.017.031-1.359 2.039c-1.301 1.952-3.479 3.117-5.824 3.117h-2.719v2h2.719c3.017 0 5.815-1.498 7.488-4.008l.804-1.207.851 1.489c.633 1.108 1.656 1.893 2.828 2.266l-1.91 3.735c-.858 1.682-2.564 2.725-4.451 2.725h-4.157c-1.634 0-3.226.576-4.481 1.623l-2.662 2.219c-.897.746-2.034 1.158-3.201 1.158h-3.828v2h3.828c1.634 0 3.226-.576 4.481-1.623l2.662-2.219c.896-.747 2.033-1.159 3.2-1.159h4.157c2.642 0 5.03-1.461 6.232-3.813l2.277-4.453c.119-.014.236-.011.355-.034 8.001-1.52 13.808-8.543 13.808-16.699 0-8.822-7.178-16-16-16zm1.82 30.735c-1.29.248-2.585-.338-3.222-1.453l-1.306-2.286c1.198-.029 2.353-.236 3.441-.593l1.434 2.151 1.664-1.109-1.231-1.847c1.186-.629 2.253-1.449 3.161-2.422l1.531 1.531 1.414-1.414-1.691-1.691c.72-1.088 1.255-2.305 1.59-3.602h2.395v-2h-2.05c.027-.331.05-.663.05-1 0-1.481-.412-2.864-1.116-4.055l1.67-1.113-1.109-1.664-1.782 1.188c-1.227-1.231-2.853-2.059-4.663-2.286v-2.07h-2v2.069c-1.457.183-2.792.759-3.898 1.619l-1.395-1.396-1.414 1.414 1.396 1.396c-.659.848-1.149 1.829-1.426 2.898h-2.263v2h2c0 .955.226 1.874.645 2.702l-2.199 1.466 1.109 1.664 2.279-1.52c1.125 1.087 2.598 1.688 4.166 1.688 2.206 0 4-1.794 4-4s-1.794-4-4-4v2c1.103 0 2 .897 2 2s-.897 2-2 2c-1.069 0-2.073-.417-2.829-1.172s-1.171-1.762-1.171-2.831c.002-3.307 2.693-5.997 6-5.997 3.309 0 6 2.691 6 6 0 5.514-4.486 10-10 10s-10-4.486-10-10c0-7.168 5.832-13 13-13 7.72 0 14 6.28 14 14 0 7.196-5.122 13.394-12.18 14.735z"/><path d="m46 1h-13.402c-5.044 0-9.732 2.721-12.235 7.1l-1.519 2.658c-1.592 2.786-4.283 4.857-7.383 5.684-6.159 1.642-10.461 7.242-10.461 13.616v10.6c0 5.632 2.104 11.012 5.922 15.151 4.218 4.57 10.201 7.191 16.418 7.191h.013 18.177c7.427 0 13.47-6.042 13.47-13.47 0-2.124.588-4.202 1.701-6.012l4.301-6.988c1.308-2.125 1.998-4.566 1.998-7.06v-11.47c0-9.374-7.626-17-17-17zm15 28.47c0 2.124-.588 4.202-1.701 6.012l-4.301 6.988c-1.308 2.125-1.998 4.566-1.998 7.06 0 6.324-5.146 11.47-11.471 11.47h-18.178c-.004 0-.007 0-.011 0-5.661 0-11.109-2.386-14.948-6.547-3.477-3.768-5.392-8.667-5.392-13.795v-10.6c0-5.47 3.691-10.274 8.977-11.684 3.612-.963 6.748-3.378 8.604-6.625l1.519-2.658c2.146-3.757 6.17-6.091 10.498-6.091h13.402c8.271 0 15 6.729 15 15z"/><path d="m13 25c2.243 0 4-1.318 4-3s-1.757-3-4-3-4 1.318-4 3 1.757 3 4 3zm0-4c1.221 0 2 .592 2 1s-.779 1-2 1-2-.592-2-1 .779-1 2-1z"/><path d="m24 53c-2.243 0-4 1.318-4 3s1.757 3 4 3 4-1.318 4-3-1.757-3-4-3zm0 4c-1.221 0-2-.592-2-1s.779-1 2-1 2 .592 2 1-.779 1-2 1z"/><path d="m50 38c-2.243 0-4 1.318-4 3s1.757 3 4 3 4-1.318 4-3-1.757-3-4-3zm0 4c-1.221 0-2-.592-2-1s.779-1 2-1 2 .592 2 1-.779 1-2 1z"/><path d="m14.293 33.207c1.309 1.309 2.793 2.793 6.707 2.793v-2c-3.086 0-4.108-1.023-5.293-2.207-1.309-1.309-2.793-2.793-6.707-2.793h-2v2h2c3.086 0 4.108 1.023 5.293 2.207z"/><path d="m19.201 46h1.799v-2h-1.799c-1.729 0-3.341-.774-4.42-2.125-1.462-1.827-3.642-2.875-5.982-2.875h-1.799v2h1.799c1.729 0 3.341.774 4.42 2.125 1.462 1.827 3.642 2.875 5.982 2.875z"/><path d="m17 27h2v2h-2z"/><path d="m23 11h2v2h-2z"/><path d="m55 12h2v2h-2z"/><path d="m42 46h2v2h-2z"/><path d="m37 52h2v2h-2z"/><path d="m57 23h2v2h-2z"/></g></g></svg>